<svg width="38" height="40" viewBox="0 0 38 40" fill="none" xmlns="http://www.w3.org/2000/svg">
<g filter="url(#filter0_d_319_745)">
<path fill-rule="evenodd" clip-rule="evenodd" d="M6.53281 23.846L4.51111 31.2277L12.0652 29.2468C14.1467 30.3819 16.49 30.9801 18.8747 30.9811H18.8808C26.7343 30.9811 33.1274 24.5898 33.1309 16.7358C33.1322 12.9291 31.651 9.35007 28.961 6.65741C26.2702 3.96474 22.6925 2.48135 18.8808 2.47949C11.0259 2.47949 4.63387 8.86967 4.63068 16.7243C4.62988 19.2349 5.28589 21.6858 6.53281 23.846ZM7.03671 16.725C7.03911 10.1969 12.3521 4.88577 18.8854 4.88577C22.0491 4.8871 25.0225 6.12011 27.2588 8.35799C29.4951 10.5959 30.7258 13.5709 30.7246 16.7346C30.722 23.2633 25.4089 28.575 18.8808 28.575H18.8763C16.7505 28.5739 14.6661 28.0034 12.848 26.9243L12.4151 26.6678L7.93236 27.8432L9.12917 23.4742L8.84733 23.0263C7.6618 21.141 7.03574 18.9621 7.03671 16.725Z" fill="#EDD185"/>
<path fill-rule="evenodd" clip-rule="evenodd" d="M15.3194 10.7689C15.0525 10.1761 14.7718 10.1641 14.5182 10.1537C14.3106 10.1449 14.073 10.1454 13.8358 10.1454C13.5982 10.1454 13.2126 10.2345 12.8864 10.5908C12.56 10.9471 11.6401 11.8084 11.6401 13.5603C11.6401 15.3121 12.9161 17.0048 13.0938 17.2426C13.2718 17.4801 15.5569 21.1899 19.1762 22.617C22.1838 23.803 22.7958 23.5671 23.4489 23.5078C24.1017 23.4486 25.5555 22.6466 25.852 21.8152C26.1488 20.9839 26.1488 20.2715 26.0599 20.1226C25.9708 19.9739 25.7335 19.8851 25.3772 19.707C25.0212 19.529 23.2706 18.6675 22.9442 18.5487C22.6178 18.43 22.3805 18.3707 22.143 18.727C21.9057 19.0833 21.2238 19.8851 21.0159 20.1226C20.8083 20.3604 20.6007 20.39 20.2443 20.212C19.8883 20.0335 18.7415 19.6579 17.3811 18.4449C16.3227 17.5012 15.6082 16.3357 15.4003 15.9794C15.1926 15.6231 15.3781 15.4304 15.5567 15.2529C15.7165 15.0933 15.9127 14.8371 16.091 14.6292C16.2685 14.4213 16.328 14.2729 16.4465 14.0356C16.5653 13.7978 16.506 13.5899 16.4169 13.4119C16.328 13.2339 15.6359 11.4729 15.3194 10.7689Z" fill="#EDD185"/>
</g>
<defs>
<filter id="filter0_d_319_745" x="-2" y="0" width="42" height="42" filterUnits="userSpaceOnUse" color-interpolation-filters="sRGB">
<feFlood flood-opacity="0" result="BackgroundImageFix"/>
<feColorMatrix in="SourceAlpha" type="matrix" values="0 0 0 0 0 0 0 0 0 0 0 0 0 0 0 0 0 0 127 0" result="hardAlpha"/>
<feOffset dy="4"/>
<feGaussianBlur stdDeviation="2"/>
<feComposite in2="hardAlpha" operator="out"/>
<feColorMatrix type="matrix" values="0 0 0 0 0 0 0 0 0 0 0 0 0 0 0 0 0 0 0.25 0"/>
<feBlend mode="normal" in2="BackgroundImageFix" result="effect1_dropShadow_319_745"/>
<feBlend mode="normal" in="SourceGraphic" in2="effect1_dropShadow_319_745" result="shape"/>
</filter>
</defs>
</svg>
